<svg xmlns="http://www.w3.org/2000/svg" viewBox="0 0 24 24" fill="none">
  <defs>
    <linearGradient id="g" x1="0" y1="0" x2="24" y2="24" gradientUnits="userSpaceOnUse">
      <stop stop-color="#FF8A4C"/><stop offset="1" stop-color="#E11D8F"/>
    </linearGradient>
  </defs>
  <circle cx="9" cy="8" r="3.1" fill="url(#g)"/>
  <circle cx="16.2" cy="9" r="2.5" fill="url(#g)" opacity=".92"/>
  <path fill="url(#g)" d="M3.4 19c.6-2.9 2.8-4.4 5.6-4.4 2 0 3.6.8 4.6 2.1-.1 0-.2 0-.3 0-2.6 0-4.8 1.2-5.7 3.6-.2.55-.7 1-1.3 1H4.5c-.7 0-1.25-.55-1.1-1.3z"/>
  <path fill="url(#g)" d="M13.8 19.2c.55-2.1 2.2-3.3 4.4-3.3 2.1 0 3.7 1.1 4.3 3.1.15.55-.3 1.1-.9 1.1h-6.6c-.7 0-1.25-.55-1.2-1.1z" opacity=".92"/>
</svg>
